<?xml version="1.0" encoding="utf-8"?>
<!-- Generator: Adobe Illustrator 23.0.1, SVG Export Plug-In . SVG Version: 6.00 Build 0)  -->
<svg version="1.1" id="Layer_1" xmlns="http://www.w3.org/2000/svg" xmlns:xlink="http://www.w3.org/1999/xlink" x="0px" y="0px"
	 viewBox="0 0 64 64" style="enable-background:new 0 0 64 64;" xml:space="preserve">
<style type="text/css">
	.st0{fill-rule:evenodd;clip-rule:evenodd;fill:#008B70;}
	.st1{fill:#008B70;}
	.st2{fill:#FFFFFF;}
	.st3{fill:none;}
</style>
<path class="st1" d="M56.17,53.09H53.9V27.13h1.78c0.8,0,1.46-0.37,1.46-0.81s0-0.81,0-0.81h0L42.55,7.67l-14.6,17.84
	c0,0,0,0.37,0,0.81s0.66,0.81,1.46,0.81h1.78v25.95H19.83v-5.95h9.74l-5.27-7.03h3.65l-4.87-6.49h2.43l-4.87-6.49h2.43l-4.87-6.49
	l-4.87,6.49h2.43l-4.87,6.49h2.43l-4.87,6.49h3.65l-5.27,7.03h9.72v5.95H9.45c-0.53,0-0.97,0.44-0.97,0.97v1.3
	c0,0.54,0.44,0.98,0.97,0.98h46.72c0.53,0,0.97-0.44,0.97-0.98v-1.3C57.15,53.53,56.71,53.09,56.17,53.09z M39.3,36.87v3.25h-4.87
	v-3.25H39.3z M34.44,32v-3.24h4.87V32H34.44z M40.92,53.09v-8.11h3.24v8.11H40.92z M50.66,36.87v3.25h-4.87v-3.25H50.66z M45.79,32
	v-3.24h4.87V32H45.79z"/>
</svg>
