<?xml version="1.0" encoding="utf-8"?>
<!-- Generator: Adobe Illustrator 23.0.1, SVG Export Plug-In . SVG Version: 6.00 Build 0)  -->
<svg version="1.1" id="Layer_1" xmlns="http://www.w3.org/2000/svg" xmlns:xlink="http://www.w3.org/1999/xlink" x="0px" y="0px"
	 viewBox="0 0 64 64" style="enable-background:new 0 0 64 64;" xml:space="preserve">
<style type="text/css">
	.st0{fill-rule:evenodd;clip-rule:evenodd;fill:#008B70;}
	.st1{fill:#008B70;}
	.st2{fill:#FFFFFF;}
	.st3{fill:none;}
</style>
<path class="st1" d="M60.59,54.26c-2.54-1.55-5.58-2.85-8.99-3.91v-8.37h6.7c1.49,0,2.54-1.49,1.98-2.91l-8.87-23.01
	c-0.74-1.86-3.29-1.86-4.03,0l-3.6,9.24l2.29,6.02c0.62,1.55,0.37,3.22-0.56,4.59c-0.93,1.36-2.48,2.17-4.09,2.17h-2.6l-0.37,0.99
	c-0.56,1.43,0.5,2.91,1.98,2.91h6.7v7.13c-3.97-0.87-8.25-1.43-12.84-1.61c0-0.06,0-0.12,0-0.19V35.41h7.13
	c1.61,0,2.73-1.61,2.11-3.1L34.11,7.81c-0.74-1.92-3.53-1.92-4.28,0L20.4,32.24c-0.56,1.49,0.5,3.1,2.11,3.1h7.13v11.97
	c0,0.06,0,0.12,0,0.19c-4.53,0.12-8.87,0.68-12.84,1.61v-7.13h6.7c1.49,0,2.54-1.49,1.98-2.91l-0.31-0.99h-2.67
	c-1.61,0-3.16-0.81-4.09-2.17c-0.93-1.36-1.12-3.1-0.56-4.59l2.29-6.02l-3.6-9.24c-0.68-1.86-3.29-1.86-4.03,0L3.72,39.06
	c-0.56,1.43,0.5,2.91,1.98,2.91h6.7v8.31c-3.41,1.12-6.45,2.42-8.99,3.97c-1.67,0.99-0.74,3.66,1.18,3.35
	c8.25-1.12,17.55-1.74,27.41-1.74s19.16,0.62,27.41,1.74C61.33,57.92,62.26,55.31,60.59,54.26z"/>
</svg>
