<?xml version="1.0" encoding="utf-8"?>
<!-- Generator: Adobe Illustrator 23.0.1, SVG Export Plug-In . SVG Version: 6.00 Build 0)  -->
<svg version="1.1" id="Layer_1" xmlns="http://www.w3.org/2000/svg" xmlns:xlink="http://www.w3.org/1999/xlink" x="0px" y="0px"
	 viewBox="0 0 64 64" style="enable-background:new 0 0 64 64;" xml:space="preserve">
<style type="text/css">
	.st0{fill-rule:evenodd;clip-rule:evenodd;fill:#008B70;}
	.st1{fill:#008B70;}
	.st2{fill:#FFFFFF;}
	.st3{fill:none;}
</style>
<g>
	<g>
		<g>
			<rect x="21.93" y="21.93" class="st1" width="20.14" height="11.51"/>
			<path class="st1" d="M43.51,7.54H20.49v0L7.54,19.05v23.02c0,1.44,1.44,2.88,2.88,2.88h10.25l5.57,10.07
				c0.8,1.44,1.44,1.44,2.88,1.44h5.75c1.44,0,2.08,0,2.88-1.44l5.57-10.07h10.25c1.44,0,2.88-1.44,2.88-2.88V19.05L43.51,7.54z
				 M38.83,47.83h-2.52v2.88h0.99l-0.99,1.8v-1.8h-2.88v2.88h-2.88V50.7h-2.88v1.8l-0.99-1.8h0.99v-2.88h-2.52l-1.62-2.88h4.14v2.88
				h2.88v-2.88h2.88v2.88h2.88v-2.88h4.14L38.83,47.83z M44.95,36.32h-25.9V19.05h25.9V36.32z"/>
		</g>
		<rect x="30.56" y="47.83" class="st1" width="2.88" height="2.88"/>
	</g>
</g>
</svg>
