<?xml version="1.0" encoding="utf-8"?>
<!-- Generator: Adobe Illustrator 23.0.1, SVG Export Plug-In . SVG Version: 6.00 Build 0)  -->
<svg version="1.1" id="Layer_1" xmlns="http://www.w3.org/2000/svg" xmlns:xlink="http://www.w3.org/1999/xlink" x="0px" y="0px"
	 viewBox="0 0 64 64" style="enable-background:new 0 0 64 64;" xml:space="preserve">
<style type="text/css">
	.st0{fill-rule:evenodd;clip-rule:evenodd;fill:#008B70;}
	.st1{fill:#008B70;}
	.st2{fill:#FFFFFF;}
	.st3{fill:none;}
</style>
<g>
	<path class="st1" d="M32.1,3.79C16.55,3.79,3.89,16.44,3.89,32c0,5.39,1.52,10.61,4.41,15.14L3.73,59.15
		c-0.11,0.3-0.04,0.63,0.2,0.85c0.15,0.14,0.34,0.22,0.54,0.22c0.11,0,0.22-0.02,0.32-0.07l11.18-5.01
		c4.75,3.32,10.32,5.07,16.13,5.07c15.56,0,28.21-12.66,28.21-28.21C60.32,16.44,47.66,3.79,32.1,3.79z"/>
	<path class="st2" d="M29.95,26.92h-8.32v3.34h7.64v2.73h-7.64v4.04h8.7v2.83H18.42V24.14h11.53V26.92z"/>
	<path class="st2" d="M32.84,24.14h3.44l6.24,10.96V24.14h3.06v15.72H42.3l-6.4-11.15v11.15h-3.06L32.84,24.14z"/>
</g>
</svg>
