<?xml version="1.0" encoding="utf-8"?>
<!-- Generator: Adobe Illustrator 23.0.1, SVG Export Plug-In . SVG Version: 6.00 Build 0)  -->
<svg version="1.1" id="Layer_1" xmlns="http://www.w3.org/2000/svg" xmlns:xlink="http://www.w3.org/1999/xlink" x="0px" y="0px"
	 viewBox="0 0 64 64" style="enable-background:new 0 0 64 64;" xml:space="preserve">
<style type="text/css">
	.st0{fill-rule:evenodd;clip-rule:evenodd;fill:#008B70;}
	.st1{fill:#008B70;}
	.st2{fill:#FFFFFF;}
	.st3{fill:none;}
</style>
<g>
	<g transform="translate(-40.000000, -280.000000)">
		<g transform="translate(42.000000, 202.000000)">
			<g transform="translate(0.000000, 80.000000)">
				<path class="st0" d="M30,56.11c14.42,0,26.11-11.69,26.11-26.11S44.42,3.89,30,3.89S3.89,15.58,3.89,30S15.58,56.11,30,56.11z
					 M27.1,13.31c0-0.39,0.34-0.71,0.73-0.71c0.4,0,0.73,0.32,0.73,0.74v7.23c0,0.14-0.04,0.29-0.12,0.41l-2.78,4.17v20.08
					c0,1.2-0.97,2.18-2.18,2.18c-1.2,0-2.18-0.98-2.18-2.18V25.14l-2.78-4.17c-0.08-0.13-0.12-0.27-0.12-0.41v-7.23
					c0-0.41,0.34-0.74,0.73-0.74c0.4,0,0.73,0.33,0.73,0.71v5.09c0,0.8,0.65,1.45,1.45,1.45c0.8,0,1.45-0.65,1.45-1.45v-5.08
					c0-0.4,0.34-0.72,0.73-0.72c0.4,0,0.73,0.31,0.73,0.72v5.08c0,0.8,0.65,1.45,1.45,1.45c0.8,0,1.45-0.65,1.45-1.45V13.31z
					 M33.56,28.46c0.23-0.01,3.27-2.51,2.01-10.9C38.77,25.5,34.35,30,34.35,30v15.95c0,0.8,0.64,1.45,1.45,1.45
					c0.8,0,1.45-0.65,1.45-1.45V28.55c2.63-0.27,4.35-1.43,4.35-5.08c0-2.93-0.94-8.2-8.55-10.88C33.77,19.16,30,19.07,30,23.47
					C30,27.05,32.03,28.55,33.56,28.46z"/>
			</g>
		</g>
	</g>
</g>
</svg>
