<?xml version="1.0" encoding="utf-8"?>
<!-- Generator: Adobe Illustrator 23.0.1, SVG Export Plug-In . SVG Version: 6.00 Build 0)  -->
<svg version="1.1" id="Layer_1" xmlns="http://www.w3.org/2000/svg" xmlns:xlink="http://www.w3.org/1999/xlink" x="0px" y="0px"
	 viewBox="0 0 64 64" style="enable-background:new 0 0 64 64;" xml:space="preserve">
<style type="text/css">
	.st0{fill-rule:evenodd;clip-rule:evenodd;fill:#008B70;}
	.st1{fill:#008B70;}
	.st2{fill:#FFFFFF;}
	.st3{fill:none;}
</style>
<path class="st1" d="M55.47,20.55c0-7.07-5.79-12.81-12.92-12.81c-6.27,0-11.43,4.41-12.65,10.26c-1.7-3.99-5.63-6.75-10.26-6.75
	c-6.17,0-11.11,4.94-11.11,11.06c0,4.09,2.29,7.71,5.63,9.62v22.27c0,1.12,0.9,2.07,2.07,2.07h30.62c1.12,0,2.07-0.9,2.07-2.07
	v-5.85l6.48,1.7V34.68l-6.48,1.7v-4.73C52.86,29.48,55.47,25.28,55.47,20.55z M47.39,14.27c1.49-0.85,3.35-0.32,4.2,1.12
	c0.85,1.44,0.32,3.3-1.12,4.15c-1.49,0.85-3.35,0.32-4.2-1.12C45.47,16.93,45.95,15.07,47.39,14.27z M23.84,16.88
	c1.28-0.74,2.87-0.32,3.61,0.96c0.74,1.28,0.32,2.87-0.96,3.56c-1.28,0.74-2.87,0.32-3.61-0.96C22.14,19.16,22.57,17.57,23.84,16.88
	z M15.5,27.72c-1.28,0.74-2.87,0.32-3.61-0.96c-0.74-1.28-0.32-2.87,0.96-3.56c1.28-0.74,2.87-0.32,3.61,0.96
	C17.2,25.38,16.72,26.98,15.5,27.72z M16.45,20.44c-0.74,1.28-2.34,1.7-3.61,0.96c-1.28-0.74-1.7-2.34-0.96-3.56
	c0.74-1.28,2.34-1.7,3.61-0.96C16.72,17.57,17.2,19.16,16.45,20.44z M19.64,31.23c-1.44,0-2.66-1.17-2.66-2.6s1.17-2.6,2.66-2.6
	c1.44,0,2.66,1.17,2.66,2.6S21.13,31.23,19.64,31.23z M19.64,18.58c-1.44,0-2.66-1.17-2.66-2.6c0-1.44,1.17-2.6,2.66-2.6
	c1.44,0,2.66,1.17,2.66,2.6C22.3,17.41,21.13,18.58,19.64,18.58z M23.84,27.72c-1.28-0.74-1.7-2.34-0.96-3.56
	c0.74-1.28,2.34-1.7,3.61-0.96c1.28,0.74,1.7,2.34,0.96,3.56C26.71,27.99,25.12,28.41,23.84,27.72z M30.49,24.96
	c1.01,2.71,2.87,4.94,5.32,6.43h-9.83C28.15,29.9,29.79,27.61,30.49,24.96z M27.3,50.79V36.97l11.69,6.91L27.3,50.79z M37.71,26.82
	c-1.49,0.85-3.35,0.32-4.2-1.12c-0.85-1.44-0.32-3.3,1.12-4.15c1.49-0.85,3.35-0.32,4.2,1.12C39.68,24.11,39.2,25.97,37.71,26.82z
	 M38.83,18.42c-0.85,1.44-2.71,1.97-4.2,1.12c-1.49-0.85-1.97-2.71-1.12-4.15c0.85-1.44,2.71-1.97,4.2-1.12
	C39.2,15.12,39.68,16.93,38.83,18.42z M42.55,30.86c-1.7,0-3.08-1.38-3.08-3.03c0-1.7,1.38-3.03,3.08-3.03
	c1.7,0,3.08,1.38,3.08,3.03C45.63,29.53,44.25,30.86,42.55,30.86z M42.55,16.24c-1.7,0-3.08-1.38-3.08-3.03
	c0-1.7,1.38-3.03,3.08-3.03c1.7,0,3.08,1.38,3.08,3.03C45.63,14.91,44.25,16.24,42.55,16.24z M47.39,26.82
	c-1.49-0.85-1.97-2.71-1.12-4.15c0.85-1.44,2.71-1.97,4.2-1.12c1.49,0.85,1.97,2.71,1.12,4.15C50.74,27.14,48.88,27.67,47.39,26.82z
	"/>
</svg>
