<?xml version="1.0" encoding="utf-8"?>
<!-- Generator: Adobe Illustrator 23.0.1, SVG Export Plug-In . SVG Version: 6.00 Build 0)  -->
<svg version="1.1" id="Layer_1" xmlns="http://www.w3.org/2000/svg" xmlns:xlink="http://www.w3.org/1999/xlink" x="0px" y="0px"
	 viewBox="0 0 64 64" style="enable-background:new 0 0 64 64;" xml:space="preserve">
<style type="text/css">
	.st0{fill-rule:evenodd;clip-rule:evenodd;fill:#008B70;}
	.st1{fill:#008B70;}
	.st2{fill:#FFFFFF;}
	.st3{fill:none;}
</style>
<g>
	<g>
		<path class="st1" d="M19.21,39.91c-0.14-0.16-0.26-0.34-0.34-0.53h-0.25v2.04h1.03c0.48,0,0.87-0.36,0.93-0.82
			C20.05,40.54,19.57,40.3,19.21,39.91z"/>
		<path class="st1" d="M7.05,39.37c-0.3,0.66-0.94,1.15-1.7,1.22c0.06,0.46,0.45,0.82,0.93,0.82H7.3v-2.04L7.05,39.37L7.05,39.37z"
			/>
		<path class="st1" d="M13.7,21.45h2.9c0.03,0,0.06,0,0.08,0c0.4,0,1.05,0.09,1.79,0.46c0.53,0.26,1.28,0.77,1.99,1.72
			c0.45-0.07,0.79-0.46,0.79-0.93V19.6c0-0.52-0.42-0.94-0.94-0.94h-2.96C16.69,20.12,15.32,21.2,13.7,21.45z"/>
		<path class="st1" d="M7.45,21.91c0.73-0.37,1.37-0.45,1.78-0.46c0.04,0,0.06,0,0.09,0h2.9c-1.63-0.25-2.99-1.33-3.64-2.78H5.62
			c-0.52,0-0.94,0.42-0.94,0.94v3.11c0,0.47,0.35,0.86,0.8,0.93C6.05,22.87,6.72,22.28,7.45,21.91z"/>
		<path class="st1" d="M20.91,36.3c-0.08-1.44-0.13-2.82-0.13-4.09c0-2.26,0.13-4.26,0.39-6c-0.28-0.76-0.6-1.38-0.95-1.91
			c-0.62-0.94-1.34-1.54-2.01-1.87c-0.64-0.32-1.21-0.4-1.55-0.4c-0.02,0-0.04,0-0.07,0h-0.22c0.02,1.79,0.68,5.7,1.65,8.05
			c0.01,0.03,0.02,0.05,0.03,0.08v-3.58c0.11,0.23,0.22,0.49,0.34,0.8c0.53,1.47,0.98,3.88,0.98,7.65c0,1.04-0.03,2.18-0.11,3.43
			c-0.05,0.83,0.59,1.54,1.42,1.59c0.03,0,0.06,0,0.09,0c0.79,0,1.46-0.62,1.5-1.42c0.01-0.11,0.01-0.22,0.02-0.34
			C21.51,37.94,20.96,37.19,20.91,36.3z"/>
		<path class="st1" d="M6.55,35.01c-0.01-4.56,0.66-7.12,1.31-8.46v3.59c0.01-0.03,0.02-0.05,0.03-0.08c0.33-0.8,0.62-1.79,0.87-2.8
			c0.47-1.96,0.76-4.07,0.78-5.24H9.32c-0.02,0-0.05,0-0.07,0c-0.34,0-0.9,0.08-1.54,0.4c-1.01,0.5-2.1,1.6-2.87,3.55
			c-0.77,1.95-1.29,4.78-1.29,9.05c0,1.1,0.04,2.3,0.11,3.61c0.05,0.8,0.71,1.42,1.5,1.42c0.03,0,0.06,0,0.09,0
			c0.83-0.05,1.46-0.76,1.42-1.59C6.59,37.19,6.55,36.05,6.55,35.01z"/>
		<path class="st1" d="M18.05,32.37c-0.43-0.47-0.77-1.12-1.08-1.88c-0.36-0.88-0.66-1.91-0.92-2.97c-0.49-2.06-0.79-4.19-0.81-5.51
			h-4.57c-0.03,1.99-0.69,5.9-1.73,8.47c-0.31,0.76-0.65,1.41-1.08,1.88V54.8c0,1.29,1.04,2.33,2.33,2.33
			c1.29,0,2.33-1.04,2.33-2.33v-17h0.87v17c0,1.29,1.04,2.33,2.33,2.33c1.29,0,2.33-1.04,2.33-2.33L18.05,32.37L18.05,32.37z"/>
		<circle class="st1" cx="12.96" cy="16.7" r="4.24"/>
		<path class="st1" d="M45.13,39.37c-0.3,0.66-0.93,1.15-1.7,1.22c0.06,0.46,0.45,0.82,0.93,0.82h1.03v-2.04L45.13,39.37
			L45.13,39.37z"/>
		<path class="st1" d="M57.29,39.91c-0.14-0.16-0.26-0.34-0.34-0.53H56.7v2.04h1.03c0.48,0,0.87-0.36,0.93-0.82
			C58.13,40.54,57.65,40.3,57.29,39.91z"/>
		<path class="st1" d="M45.54,21.91c0.73-0.37,1.37-0.45,1.78-0.46c0.04,0,0.06,0,0.09,0h2.9c-1.63-0.25-2.99-1.33-3.64-2.78H43.7
			c-0.52,0-0.94,0.42-0.94,0.94v3.11c0,0.47,0.35,0.86,0.8,0.93C44.13,22.87,44.8,22.28,45.54,21.91z"/>
		<path class="st1" d="M51.78,21.45h2.9c0.03,0,0.06,0,0.08,0c0.4,0,1.05,0.09,1.79,0.46c0.53,0.26,1.28,0.77,1.99,1.72
			c0.45-0.07,0.79-0.46,0.79-0.93V19.6c0-0.52-0.42-0.94-0.94-0.94h-2.96C54.77,20.12,53.41,21.2,51.78,21.45z"/>
		<path class="st1" d="M43.09,36.3c-0.05,0.89-0.6,1.64-1.37,1.98c0.01,0.11,0.01,0.22,0.02,0.34c0.05,0.8,0.71,1.42,1.5,1.42
			c0.03,0,0.06,0,0.09,0c0.83-0.05,1.46-0.76,1.42-1.59c-0.07-1.25-0.11-2.39-0.11-3.43c-0.01-4.56,0.66-7.12,1.31-8.46v3.59
			c0.01-0.03,0.02-0.05,0.03-0.08c0.33-0.8,0.62-1.79,0.87-2.8c0.47-1.96,0.76-4.07,0.78-5.24H47.4c-0.02,0-0.05,0-0.07,0
			c-0.34,0-0.9,0.08-1.54,0.4c-1.01,0.5-2.1,1.6-2.87,3.55c-0.03,0.08-0.06,0.17-0.1,0.25c0.26,1.75,0.39,3.73,0.39,5.99
			C43.22,33.48,43.17,34.85,43.09,36.3z"/>
		<path class="st1" d="M56.13,32.37c-0.43-0.47-0.77-1.12-1.08-1.88c-0.36-0.88-0.66-1.91-0.92-2.97c-0.49-2.06-0.79-4.19-0.81-5.51
			h-4.57c-0.03,1.99-0.69,5.9-1.73,8.47c-0.31,0.76-0.65,1.41-1.08,1.88V54.8c0,1.29,1.04,2.33,2.33,2.33
			c1.29,0,2.33-1.04,2.33-2.33v-17h0.87v17c0,1.29,1.04,2.33,2.33,2.33c1.29,0,2.33-1.04,2.33-2.33L56.13,32.37L56.13,32.37z"/>
		<path class="st1" d="M56.1,30.06c0.01,0.03,0.02,0.05,0.03,0.08v-3.58c0.11,0.23,0.22,0.49,0.34,0.8
			c0.53,1.47,0.98,3.88,0.98,7.65c0,1.04-0.03,2.18-0.11,3.43c-0.05,0.83,0.59,1.54,1.42,1.59c0.03,0,0.06,0,0.09,0
			c0.79,0,1.46-0.62,1.5-1.42c0.08-1.31,0.11-2.5,0.11-3.61c-0.01-5.68-0.92-8.83-2.15-10.72c-0.62-0.94-1.34-1.54-2.01-1.87
			c-0.64-0.32-1.21-0.4-1.55-0.4c-0.02,0-0.04,0-0.07,0h-0.22C54.48,23.8,55.14,27.71,56.1,30.06z"/>
		<circle class="st1" cx="51.04" cy="16.7" r="4.24"/>
		<path class="st1" d="M39.03,37.71c-0.25-0.28-0.42-0.61-0.51-0.97h-0.15v2.66h1.15c0.54,0,0.98-0.4,1.04-0.93
			C39.97,38.42,39.42,38.16,39.03,37.71z"/>
		<path class="st1" d="M25.64,27.98v-0.01C25.64,27.97,25.64,27.98,25.64,27.98C25.64,27.98,25.64,27.98,25.64,27.98z"/>
		<path class="st1" d="M25.64,36.74h-0.15c-0.24,0.93-1.04,1.65-2.04,1.74c0.07,0.52,0.51,0.93,1.04,0.93h1.15L25.64,36.74
			L25.64,36.74z"/>
		<path class="st1" d="M38.36,27.98C38.36,27.98,38.36,27.98,38.36,27.98c0,0,0-0.01,0-0.02V27.98z"/>
		<path class="st1" d="M25.82,17.49c0.82-0.41,1.54-0.51,2-0.52c0.04,0,0.07,0,0.1,0h3.26c-1.83-0.28-3.36-1.49-4.09-3.13h-3.33
			c-0.58,0-1.06,0.47-1.06,1.06v3.49c0,0.53,0.39,0.96,0.89,1.04C24.23,18.56,24.99,17.9,25.82,17.49z"/>
		<path class="st1" d="M32.83,16.97h3.26c0.03,0,0.06,0,0.09,0c0.45,0.01,1.18,0.1,2.01,0.52c0.59,0.3,1.44,0.87,2.23,1.94
			c0.5-0.08,0.89-0.51,0.89-1.04V14.9c0-0.58-0.47-1.06-1.06-1.06h-3.33C36.19,15.48,34.66,16.68,32.83,16.97z"/>
		<path class="st1" d="M42.46,36.26c0.09-1.47,0.13-2.81,0.13-4.05c-0.01-6.39-1.03-9.92-2.42-12.04c-0.7-1.06-1.51-1.73-2.26-2.11
			c-0.72-0.36-1.36-0.45-1.74-0.45c-0.02,0-0.05,0-0.07,0h-0.25c0.03,2.01,0.76,6.41,1.85,9.04c0.01,0.03,0.03,0.06,0.04,0.09v-4.02
			c0.13,0.26,0.25,0.55,0.38,0.9c0.6,1.65,1.1,4.36,1.1,8.6c0,1.17-0.04,2.45-0.12,3.86c-0.05,0.93,0.66,1.73,1.59,1.79
			c0.03,0,0.07,0,0.1,0C41.66,37.85,42.4,37.16,42.46,36.26z"/>
		<path class="st1" d="M24.8,32.21c-0.01-5.12,0.74-8,1.47-9.5v4.03c0.01-0.03,0.02-0.06,0.04-0.09c0.37-0.9,0.7-2.01,0.97-3.15
			c0.53-2.21,0.85-4.58,0.87-5.89h-0.25c-0.03,0-0.05,0-0.08,0c-0.38,0.01-1.02,0.09-1.74,0.45c-1.14,0.56-2.36,1.8-3.22,3.99
			c-0.87,2.2-1.45,5.37-1.46,10.17c0,1.24,0.04,2.59,0.13,4.05c0.05,0.9,0.8,1.59,1.69,1.59c0.03,0,0.07,0,0.1,0
			c0.93-0.06,1.64-0.86,1.59-1.79C24.84,34.66,24.8,33.37,24.8,32.21z"/>
		<path class="st1" d="M37.72,29.24c-0.48-0.53-0.86-1.26-1.21-2.11c-0.4-0.99-0.75-2.14-1.03-3.33c-0.55-2.31-0.89-4.71-0.91-6.19
			h-5.14c-0.04,2.24-0.77,6.63-1.94,9.52c-0.35,0.85-0.73,1.58-1.21,2.11v25.21c0,1.45,1.17,2.62,2.62,2.62
			c1.44,0,2.62-1.17,2.62-2.62v-19.1h0.98v19.1c0,1.45,1.17,2.62,2.62,2.62c1.44,0,2.62-1.17,2.62-2.62L37.72,29.24L37.72,29.24z"/>
		<circle class="st1" cx="32" cy="11.63" r="4.76"/>
	</g>
</g>
</svg>
