<?xml version="1.0" encoding="utf-8"?>
<!-- Generator: Adobe Illustrator 23.0.1, SVG Export Plug-In . SVG Version: 6.00 Build 0)  -->
<svg version="1.1" id="Layer_1" xmlns="http://www.w3.org/2000/svg" xmlns:xlink="http://www.w3.org/1999/xlink" x="0px" y="0px"
	 viewBox="0 0 64 64" style="enable-background:new 0 0 64 64;" xml:space="preserve">
<style type="text/css">
	.st0{fill-rule:evenodd;clip-rule:evenodd;fill:#008B70;}
	.st1{fill:#008B70;}
	.st2{fill:#FFFFFF;}
	.st3{fill:none;}
</style>
<g>
	<path class="st3" d="M37.21,52.27h-0.02v4.63h3.5C36.69,56.9,37.21,52.27,37.21,52.27z"/>
	<path class="st1" d="M37.19,52.27h0.02h4.63v-3.52c0-3.19-6.58-4.63-9.84-4.63c-3.27,0-9.84,1.44-9.84,4.63v3.52h4.61H37.19z"/>
	<path class="st1" d="M27.95,34.72v1.49c0,2.46,1.62,4.45,4.05,4.45c2.44,0,4.05-1.99,4.05-4.45v-1.49c0-2.46-1.62-4.45-4.05-4.45
		C29.56,30.26,27.95,32.26,27.95,34.72z"/>
	<path class="st1" d="M14.63,42.95c2.44,0,4.05-2,4.05-4.47V37c0-2.47-1.62-4.47-4.05-4.47c-2.44,0-4.05,2-4.05,4.47v1.49
		C10.57,40.95,12.19,42.95,14.63,42.95z"/>
	<path class="st1" d="M45.32,37v1.49c0,2.47,1.62,4.47,4.05,4.47s4.05-2,4.05-4.47V37c0-2.47-1.62-4.47-4.05-4.47
		S45.32,34.53,45.32,37z"/>
	<path class="st1" d="M53.43,46.48h-3.47l-5.79,5.79h-2.32h-4.63c0,0-0.52,4.63,3.47,4.63c2.33,0,6.95,0,6.95,0l4.63-4.66l-3.47,3.5
		v3.47h8.11V49.9C56.9,47.99,55.34,46.48,53.43,46.48z"/>
	<polygon class="st1" points="11.72,52.24 15.21,55.75 15.21,55.74 	"/>
	<path class="st1" d="M22.16,52.27h-2.34l-5.79-5.79h-3.47c-1.91,0-3.45,1.52-3.45,3.43v9.31h8.11v-3.46l-3.49-3.51l3.49,3.5v0.01
		l1.14,1.14c0,0,4.62,0,6.95,0c2.77,0,3.37-2.22,3.47-3.59v-1.04H22.16z"/>
	<path class="st1" d="M17.52,25.63h18.53l4.91,5.73c0.7,0.82,2.04,0.32,2.04-0.75v-4.98h4.63c1.28,0,2.32-1.04,2.32-2.32V7.1
		c0-1.28-1.04-2.32-2.32-2.32H17.52c-1.28,0-2.32,1.04-2.32,2.32v16.21C15.21,24.59,16.24,25.63,17.52,25.63z"/>
</g>
</svg>
