<?xml version="1.0" encoding="utf-8"?>
<!-- Generator: Adobe Illustrator 23.0.1, SVG Export Plug-In . SVG Version: 6.00 Build 0)  -->
<svg version="1.1" id="Layer_1" xmlns="http://www.w3.org/2000/svg" xmlns:xlink="http://www.w3.org/1999/xlink" x="0px" y="0px"
	 viewBox="0 0 64 64" style="enable-background:new 0 0 64 64;" xml:space="preserve">
<style type="text/css">
	.st0{fill-rule:evenodd;clip-rule:evenodd;fill:#008B70;}
	.st1{fill:#008B70;}
	.st2{fill:#FFFFFF;}
	.st3{fill:none;}
</style>
<path class="st1" d="M56.01,53.83H34.18c7.23,0,13.1-5.86,13.1-13.1v-6.55c0-1.21-0.98-2.18-2.18-2.18h-2.18
	c-3.22-0.01-6.34,1.18-8.73,3.34V32l0,0c7.23,0,13.1-5.86,13.1-13.1v-6.55c0-1.21-0.98-2.18-2.18-2.18h-2.18
	c-3.22-0.01-6.34,1.18-8.73,3.34V7.99c0-1.21-0.98-2.18-2.18-2.18c-1.21,0-2.18,0.98-2.18,2.18v5.52c-2.4-2.15-5.51-3.34-8.73-3.34
	H18.9c-1.21,0-2.18,0.98-2.18,2.18v6.55c0,7.23,5.86,13.1,13.1,13.1l0,0v3.34c-2.4-2.15-5.51-3.34-8.73-3.34H18.9
	c-1.21,0-2.18,0.98-2.18,2.18v6.55c0,7.23,5.86,13.1,13.1,13.1H7.99c-1.21,0-2.18,0.98-2.18,2.18s0.98,2.18,2.18,2.18h48.03
	c1.21,0,2.18-0.98,2.18-2.18S57.22,53.83,56.01,53.83z M34.18,45.1c0-4.82,3.91-8.73,8.73-8.73v4.37c0,4.82-3.91,8.73-8.73,8.73l0,0
	V45.1z M34.18,23.27c0-4.82,3.91-8.73,8.73-8.73v4.37c0,4.82-3.91,8.73-8.73,8.73l0,0V23.27z M21.09,14.54
	c4.82,0,8.73,3.91,8.73,8.73v4.37l0,0c-4.82,0-8.73-3.91-8.73-8.73 M21.09,40.73v-4.37l0,0c4.82,0,8.73,3.91,8.73,8.73v4.37l0,0
	C24.99,49.46,21.09,45.55,21.09,40.73z"/>
</svg>
