<?xml version="1.0" encoding="utf-8"?>
<!-- Generator: Adobe Illustrator 23.0.1, SVG Export Plug-In . SVG Version: 6.00 Build 0)  -->
<svg version="1.1" id="Layer_1" xmlns="http://www.w3.org/2000/svg" xmlns:xlink="http://www.w3.org/1999/xlink" x="0px" y="0px"
	 viewBox="0 0 64 64" style="enable-background:new 0 0 64 64;" xml:space="preserve">
<style type="text/css">
	.st0{fill-rule:evenodd;clip-rule:evenodd;fill:#008B70;}
	.st1{fill:#008B70;}
	.st2{fill:#FFFFFF;}
	.st3{fill:none;}
</style>
<g>
	<path class="st0" d="M26.09,42.7c-3.24,3.23-3.25,8.48-0.03,11.72c3.22,3.24,8.48,3.26,11.72,0.03c3.24-3.23,3.25-8.48,0.03-11.72
		C34.58,39.49,29.33,39.47,26.09,42.7z M14.4,30.95c0,0-2.85,3.02-0.01,5.86c2.83,2.84,5.86,0.01,5.86,0.01
		c6.49-6.45,16.98-6.43,23.44,0.06c0,0,2.92,2.94,5.86,0.01c2.94-2.92,0.01-5.86,0.01-5.86C39.88,21.31,24.13,21.27,14.4,30.95
		L14.4,30.95z M2.71,19.2c0,0-2.94,2.92-0.01,5.86c2.92,2.94,5.86,0.01,5.86,0.01c12.98-12.91,33.96-12.86,46.87,0.12
		c0,0,2.92,2.94,5.86,0.01c2.94-2.92,0.01-5.86,0.01-5.86C45.17,3.13,18.93,3.06,2.71,19.2z"/>
</g>
</svg>
