<?xml version="1.0" encoding="utf-8"?>
<!-- Generator: Adobe Illustrator 23.0.1, SVG Export Plug-In . SVG Version: 6.00 Build 0)  -->
<svg version="1.1" id="Layer_1" xmlns="http://www.w3.org/2000/svg" xmlns:xlink="http://www.w3.org/1999/xlink" x="0px" y="0px"
	 viewBox="0 0 64 64" style="enable-background:new 0 0 64 64;" xml:space="preserve">
<style type="text/css">
	.st0{fill-rule:evenodd;clip-rule:evenodd;fill:#008B70;}
	.st1{fill:#008B70;}
	.st2{fill:#FFFFFF;}
	.st3{fill:none;}
</style>
<g>
	<path class="st1" d="M49.31,48.01c-0.23,0.01-0.47,0.02-0.73,0.02c-4.02,0-4.14-1.28-7.93-1.35c-0.12,0-0.23,0-0.36,0
		c-1.78,0-2.79,0.25-3.7,0.54c-1.21,0.38-2.22,0.82-4.59,0.82c-2.03,0-3.06-0.32-4.08-0.66c-1.03-0.34-2.05-0.68-4.06-0.7
		c-0.05,0-0.1,0-0.15,0c-4.14,0-4.14,1.36-8.29,1.36c-4.14,0-4.14-1.36-8.29-1.36V56.8h49.74V46.67c-1.65,0-2.64,0.22-3.5,0.47
		C52.2,47.5,51.28,47.93,49.31,48.01z"/>
	<path class="st1" d="M22,7.2c-4.14,0-7.52,3.37-7.52,7.52s3.37,7.52,7.52,7.52c4.14,0,7.52-3.37,7.52-7.52S26.15,7.2,22,7.2z"/>
	<path class="st1" d="M10.79,34.61v3.17c0,0.27,0.22,0.48,0.48,0.48h12.59v6.61c1.94,0.02,3.09,0.32,4.06,0.63v-7.24h8.66v7.08
		c0.89-0.26,2-0.48,3.7-0.48c0.12,0,0.24,0,0.36,0v-6.61h8.66v7.94c1.37-0.06,2.13-0.31,2.99-0.59c0.33-0.11,0.68-0.22,1.07-0.33
		v-7.02h3.5v-4.13h-45.6C11.01,34.13,10.79,34.34,10.79,34.61z"/>
</g>
</svg>
