<?xml version="1.0" encoding="utf-8"?>
<!-- Generator: Adobe Illustrator 23.0.1, SVG Export Plug-In . SVG Version: 6.00 Build 0)  -->
<svg version="1.1" id="Layer_1" xmlns="http://www.w3.org/2000/svg" xmlns:xlink="http://www.w3.org/1999/xlink" x="0px" y="0px"
	 viewBox="0 0 64 64" style="enable-background:new 0 0 64 64;" xml:space="preserve">
<style type="text/css">
	.st0{fill-rule:evenodd;clip-rule:evenodd;fill:#008B70;}
	.st1{fill:#008B70;}
	.st2{fill:#FFFFFF;}
	.st3{fill:none;}
</style>
<g>
	<path class="st0" d="M31.93,46.04c2.38-0.66,4.64-1.6,6.87-2.65c0.19-2.98,0.37-5.65,0.56-7.92c2.46,3.26,8.36,4.82,12.99,4.68
		l0.89-2.46c-4.5-1.58-8.52-4.88-9.78-10.08c-1.83-5.9-4.26-5.92-11.45-5.92s-9.62,0.02-11.45,5.92c-1.26,5.2-5.28,8.5-9.78,10.08
		l0.89,2.46c4.63,0.13,10.53-1.42,12.99-4.68c0.19,2.28,0.38,4.95,0.56,7.92C27.39,44.42,29.59,45.39,31.93,46.04 M31.93,19.51
		c3.42,0,6.19-2.77,6.19-6.19s-2.77-6.19-6.19-6.19s-6.19,2.77-6.19,6.19C25.74,16.73,28.51,19.51,31.93,19.51z M31.93,54.88
		c4.13,1.09,7.33,1.67,12.77,1.99l2.53-2.82c-1.66-0.55-4.21-1.67-4.96-2c1.31-0.7,3.88-1.77,5.71-3.02
		c4.32-2.96,0.49-9.29-4.61-6.54c-1.7,0.92-3.31,1.73-4.82,2.43c-2.52,1.17-4.75,2.02-6.61,2.5c-1.86-0.49-4.1-1.34-6.61-2.5
		c-1.51-0.7-3.12-1.51-4.82-2.43c-5.1-2.75-8.94,3.58-4.61,6.54c1.83,1.25,4.4,2.33,5.71,3.02c-0.75,0.34-3.3,1.46-4.96,2l2.53,2.82
		C24.59,56.55,27.8,55.97,31.93,54.88z"/>
</g>
</svg>
