<?xml version="1.0" encoding="utf-8"?>
<!-- Generator: Adobe Illustrator 25.2.1, SVG Export Plug-In . SVG Version: 6.00 Build 0)  -->
<svg version="1.1" id="Layer_1" xmlns="http://www.w3.org/2000/svg" xmlns:xlink="http://www.w3.org/1999/xlink" x="0px" y="0px"
	 viewBox="0 0 61.2 61.2" style="enable-background:new 0 0 61.2 61.2;" xml:space="preserve">
<style type="text/css">
	.st0{fill:#7FBC68;}
</style>
<g>
	<path class="st0" d="M41.4,8.7c-0.1,0.3-0.1,0.6-0.2,0.9c-0.6,4.8-2.2,9.5-5.4,13.2l-3.7,4.2c-4.3,4.9-10.3,7.7-16.8,8.6
		c-0.4,0.1-0.7,0.1-1.1,0.2c-4.1,1-7.4,4.3-8.3,8.4C4.2,52,10.6,58.9,18.4,57.9c4.9-0.6,8.9-4.6,9.7-9.4c0.1-0.7,0.1-1.4,0.1-2.1
		c-0.2-6.1,1.5-12.1,5.5-16.7l3.8-4.4c3.3-3.8,7.6-6.7,12.5-7.8c0.2-0.1,0.5-0.1,0.7-0.2c2.5-0.8,4.5-3.1,4.9-5.7
		c0.8-5-3.5-9.2-8.5-8.2C44.3,3.9,42,6,41.4,8.7z"/>
</g>
</svg>
