<?xml version="1.0" encoding="utf-8"?>
<!-- Generator: Adobe Illustrator 25.2.1, SVG Export Plug-In . SVG Version: 6.00 Build 0)  -->
<svg version="1.1" id="Layer_1" xmlns="http://www.w3.org/2000/svg" xmlns:xlink="http://www.w3.org/1999/xlink" x="0px" y="0px"
	 viewBox="0 0 284.9 71.1" style="enable-background:new 0 0 284.9 71.1;" xml:space="preserve">
<style type="text/css">
	.st0{fill:#FFFFFF;}
</style>
<g>
	<g>
		<g>
			<path class="st0" d="M23.9,39.1c1.3-0.6,2.1-1.9,2.1-3.4c0-1.5-0.9-2.8-2.1-3.4c-0.8-0.4-1.3-1.1-1.3-2c0-0.8,0.4-1.5,1.1-1.9
				c0.9-0.5,1.6-1.5,1.6-2.7c0-1.2-0.7-2.2-1.6-2.7c-0.6-0.3-1-1-1-1.7v-0.2c0-0.7,0.4-1.3,1-1.7c0.7-0.5,1.2-1.3,1.2-2.2
				c0-0.9-0.5-1.8-1.2-2.2c-0.7-0.4-1-1.2-1-1.9c0-0.7,0.3-1.4,0.8-1.8c0.5-0.4,0.8-0.9,0.8-1.6c0-0.6-0.3-1.2-0.8-1.6
				c-0.5-0.4-0.8-1.1-0.8-1.8V5.8c0-0.6,0.3-1.1,0.6-1.5C23.5,4,23.7,3.5,23.6,3c-0.1-0.5-0.5-0.9-1-1c-1-0.2-1.8,0.5-1.8,1.4
				c0,0.4,0.1,0.7,0.4,0.9c0.4,0.4,0.7,1,0.7,1.6v0.4c0,0.7-0.3,1.4-0.8,1.8c-0.5,0.4-0.8,0.9-0.8,1.6c0,0.6,0.3,1.2,0.8,1.6
				c0.5,0.4,0.8,1.1,0.8,1.8v0c0,0.8-0.4,1.5-1,1.9c-0.7,0.5-1.2,1.3-1.2,2.2c0,0.9,0.5,1.8,1.2,2.2c0.6,0.4,1,1,1,1.7v0.2
				c0,0.7-0.4,1.4-1,1.7c-1,0.5-1.6,1.5-1.6,2.7c0,1.1,0.6,2.1,1.6,2.7c0.7,0.4,1.1,1.1,1.1,1.9v0c0,0.8-0.5,1.6-1.3,2
				c-1.3,0.6-2.1,1.9-2.1,3.4c0,1.5,0.9,2.8,2.1,3.4c0.8,0.4,1.3,1.1,1.3,2v0c0,0.8-0.4,1.5-1.1,1.9c-0.9,0.5-1.6,1.5-1.6,2.7
				c0,1.1,0.6,2.1,1.5,2.6c0.7,0.4,1.2,1.2,1.2,2v0c0,0.8-0.4,1.5-1,1.9c-0.7,0.5-1.2,1.3-1.2,2.2c0,1,0.5,1.8,1.3,2.3
				c0.6,0.4,1,1,1,1.7v0.2c0,0.6-0.3,1.2-0.8,1.5c-0.5,0.4-0.8,0.9-0.8,1.6c0,0.6,0.3,1.2,0.8,1.6c0.5,0.4,0.8,1.1,0.8,1.8v0.2
				c0,0.6-0.3,1.1-0.6,1.5c-0.3,0.3-0.4,0.8-0.3,1.3c0.1,0.5,0.5,0.9,1,1c1,0.2,1.8-0.5,1.8-1.4c0-0.4-0.1-0.7-0.4-1
				c-0.4-0.4-0.6-0.9-0.6-1.5v-0.2c0-0.7,0.3-1.4,0.8-1.8c0.5-0.4,0.8-0.9,0.8-1.6c0-0.6-0.3-1.2-0.8-1.6c-0.5-0.4-0.8-0.9-0.8-1.5
				v-0.2c0-0.7,0.4-1.3,1-1.7c0.8-0.5,1.3-1.3,1.3-2.3c0-0.9-0.5-1.8-1.2-2.2c-0.6-0.4-1-1.2-1-1.9v0c0-0.8,0.5-1.6,1.2-2
				c0.9-0.5,1.5-1.5,1.5-2.6c0-1.1-0.6-2.1-1.6-2.7c-0.7-0.4-1.1-1.1-1.1-1.9C22.6,40.2,23.1,39.5,23.9,39.1z"/>
		</g>
		<g>
			<path class="st0" d="M37.2,53.1c-0.5,0.1-0.9,0.5-1,0.9c0,0,0,0,0,0c-0.3,1-0.8,1.9-1.6,2.5l-2.2,2c-1,0.9-2.2,1.5-3.4,1.9
				c0,0,0,0,0,0c-0.4,0.2-0.8,0.5-0.9,1c-0.2,1,0.7,1.9,1.7,1.7c0.5-0.1,0.9-0.5,1-0.9c0,0,0,0,0,0c0.3-1,0.8-1.9,1.6-2.5l2.2-2
				c1-0.9,2.2-1.5,3.4-1.9c0,0,0,0,0,0c0.4-0.2,0.8-0.5,0.9-1C39.1,53.8,38.2,52.9,37.2,53.1z"/>
		</g>
		<g>
			<path class="st0" d="M28,17.1c0,1.3,1.2,2.2,2.5,1.9c0.7-0.2,1.3-0.8,1.5-1.5c0.2-0.8-0.1-1.5-0.6-1.9c-0.7-0.6-1.1-1.6-1.2-2.5
				l0-0.6c-0.1-0.8,0.2-1.5,0.6-2.1c0.2-0.3,0.3-0.7,0.2-1.1c-0.1-0.5-0.5-0.8-1-1C28.8,8,28,8.7,28,9.6c0,0.3,0.1,0.7,0.3,0.9
				c0.5,0.6,0.9,1.3,0.9,2.1l0.1,0.7c0.1,1-0.3,1.9-0.9,2.6C28.1,16.2,28,16.7,28,17.1z"/>
		</g>
		<g>
			<path class="st0" d="M39.4,43.7c-0.7,0.1-1.3,0.7-1.6,1.4c0,0,0,0,0,0c-0.4,1.5-1.2,2.8-2.3,3.8l-1.6,1.4
				c-1.3,1.1-2.8,1.8-4.5,2.2c0,0,0,0,0,0c-0.7,0.2-1.3,0.8-1.4,1.5c-0.3,1.4,0.9,2.6,2.3,2.4c0.7-0.1,1.3-0.7,1.6-1.4c0,0,0,0,0,0
				c0.4-1.5,1.2-2.8,2.3-3.8l1.6-1.4c1.3-1.1,2.8-1.8,4.5-2.2c0,0,0,0,0,0c0.7-0.2,1.3-0.8,1.4-1.5C41.9,44.7,40.8,43.5,39.4,43.7z"
				/>
		</g>
		<g>
			<path class="st0" d="M29.6,23.3c-0.8,0.3-1.4,1-1.6,1.8c-0.4,1.9,1.1,3.5,3,3.3c1.1-0.2,2-1.1,2.2-2.2c0.1-0.3,0.1-0.6,0-0.9
				c-0.2-1.3,0.3-2.6,1.1-3.6l1.4-1.8c0.6-0.7,1.4-1.2,2.3-1.5c0,0,0,0,0,0c0.4-0.2,0.8-0.6,0.9-1c0.2-1.1-0.7-2-1.8-1.7
				c-0.5,0.1-0.8,0.5-1,0.9c0,0.1-0.1,0.2-0.1,0.4c0,0.9-0.4,1.7-1,2.4l-1.4,1.7c-0.8,1-2,1.8-3.3,1.9
				C30.1,23.1,29.9,23.2,29.6,23.3z"/>
		</g>
		<g>
			<path class="st0" d="M40,33.1c-1.1,0.2-2,1-2.2,2.1c0,0.1,0,0.2,0,0.3c-0.2,1.9-1.2,3.6-2.5,5l-0.1,0.1c-1.3,1.4-3,2.3-4.9,2.6
				c-0.1,0-0.1,0-0.2,0c-1,0.2-1.9,1.1-2,2.2c-0.3,1.8,1.2,3.3,3,3.1c1.1-0.2,2-1,2.2-2.1c0-0.1,0-0.2,0-0.3c0.2-1.9,1.2-3.6,2.5-5
				l0.1-0.1c1.3-1.4,3-2.3,4.9-2.6c0.1,0,0.1,0,0.2,0c1-0.2,1.9-1.1,2-2.2C43.3,34.3,41.8,32.8,40,33.1z"/>
		</g>
		<g>
			<path class="st0" d="M37.8,25.3c0,0.1,0,0.2,0,0.2c-0.2,1.3-0.6,2.6-1.5,3.6l-1,1.2c-1.2,1.4-2.8,2.1-4.6,2.4
				c-0.1,0-0.2,0-0.3,0.1c-1.1,0.3-2,1.2-2.3,2.3c-0.5,2.2,1.3,4,3.4,3.8c1.3-0.2,2.5-1.3,2.7-2.6c0-0.2,0-0.4,0-0.6
				c-0.1-1.7,0.4-3.3,1.5-4.6l1-1.2c0.9-1,2.1-1.8,3.4-2.2c0.1,0,0.1,0,0.2-0.1c0.7-0.2,1.2-0.8,1.3-1.6c0.2-1.4-1-2.5-2.3-2.3
				C38.6,23.9,38,24.5,37.8,25.3z"/>
		</g>
		<g>
			<path class="st0" d="M15.5,60.4C15.5,60.4,15.5,60.4,15.5,60.4c-1.3-0.4-2.5-1-3.5-1.9l-2.2-2C9,55.9,8.5,55,8.2,54c0,0,0,0,0,0
				c-0.2-0.5-0.6-0.8-1-0.9c-1-0.2-1.9,0.7-1.7,1.7c0.1,0.5,0.5,0.8,0.9,1c0,0,0,0,0,0c1.3,0.4,2.5,1,3.4,1.9l2.2,2
				c0.8,0.7,1.2,1.6,1.6,2.5c0,0,0,0,0,0c0.2,0.5,0.6,0.8,1,0.9c1,0.2,1.9-0.7,1.7-1.7C16.3,61,15.9,60.6,15.5,60.4z"/>
		</g>
		<g>
			<path class="st0" d="M15.2,12.6c0.1-0.8,0.4-1.5,0.9-2.1c0.2-0.2,0.3-0.6,0.3-0.9c0-0.9-0.9-1.6-1.8-1.4c-0.5,0.1-0.9,0.5-1,1
				c-0.1,0.4,0,0.8,0.2,1.1c0.4,0.6,0.6,1.4,0.6,2.1l0,0.6c-0.1,1-0.5,1.9-1.2,2.5c-0.5,0.4-0.8,1.2-0.6,1.9
				c0.2,0.7,0.7,1.3,1.5,1.5c1.3,0.3,2.5-0.7,2.5-1.9c0-0.5-0.2-0.9-0.4-1.2c-0.6-0.8-1-1.7-0.9-2.6L15.2,12.6z"/>
		</g>
		<g>
			<path class="st0" d="M10.2,51.2c1.1,1,1.9,2.4,2.3,3.8c0,0,0,0,0,0c0.2,0.7,0.8,1.2,1.6,1.4c1.4,0.2,2.5-1,2.3-2.4
				c-0.1-0.7-0.7-1.3-1.4-1.5c0,0,0,0,0,0c-1.7-0.4-3.2-1.1-4.5-2.2l-1.6-1.4c-1.1-1-1.9-2.4-2.3-3.8c0,0,0,0,0,0
				c-0.2-0.7-0.8-1.2-1.6-1.4c-1.4-0.2-2.5,1-2.3,2.4c0.1,0.7,0.7,1.3,1.4,1.5c0,0,0,0,0,0c1.7,0.4,3.2,1.1,4.5,2.2L10.2,51.2z"/>
		</g>
		<g>
			<path class="st0" d="M6.4,18.4C6.4,18.4,6.4,18.4,6.4,18.4c0.9,0.3,1.7,0.8,2.3,1.5l1.4,1.8c0.8,1,1.3,2.3,1.1,3.6
				c0,0.3,0,0.6,0,0.9c0.2,1.1,1.1,2,2.2,2.2c1.9,0.3,3.4-1.4,3-3.3c-0.2-0.8-0.8-1.5-1.6-1.8c-0.3-0.1-0.5-0.2-0.8-0.2
				c-1.3-0.1-2.5-0.9-3.3-1.9l-1.4-1.7c-0.6-0.7-0.9-1.5-1-2.4c0-0.1,0-0.2-0.1-0.4c-0.1-0.5-0.5-0.8-1-0.9c-1.1-0.3-2,0.6-1.8,1.7
				C5.6,17.9,5.9,18.3,6.4,18.4z"/>
		</g>
		<g>
			<path class="st0" d="M3.6,38.3c1.9,0.3,3.6,1.2,4.9,2.6L8.6,41c1.3,1.4,2.3,3.1,2.5,5c0,0.1,0,0.2,0,0.3c0.2,1.1,1.1,1.9,2.2,2.1
				c1.8,0.3,3.3-1.3,3-3.1c-0.2-1.1-1-1.9-2-2.2c-0.1,0-0.1,0-0.2,0c-1.9-0.3-3.6-1.2-4.9-2.6l-0.1-0.1c-1.3-1.4-2.3-3.1-2.5-5
				c0-0.1,0-0.2,0-0.3c-0.2-1.1-1.1-1.9-2.2-2.1c-1.8-0.3-3.3,1.3-3,3c0.2,1.1,1,1.9,2,2.2C3.5,38.3,3.5,38.3,3.6,38.3z"/>
		</g>
		<g>
			<path class="st0" d="M4,27.6c0.1,0,0.1,0,0.2,0.1c1.4,0.3,2.5,1.1,3.4,2.2l1,1.2c1.1,1.3,1.6,2.9,1.5,4.6c0,0.2,0,0.4,0,0.6
				c0.2,1.3,1.3,2.4,2.7,2.6c2.1,0.3,3.9-1.6,3.4-3.8c-0.2-1.1-1.2-2-2.3-2.3c-0.1,0-0.2,0-0.3-0.1c-1.8-0.2-3.4-1-4.6-2.4l-1-1.2
				c-0.9-1-1.3-2.3-1.5-3.6c0-0.1,0-0.2,0-0.2c-0.2-0.7-0.8-1.3-1.5-1.5c-1.4-0.3-2.6,0.9-2.3,2.3C2.8,26.8,3.4,27.4,4,27.6z"/>
		</g>
	</g>
	<g>
		<g>
			<path class="st0" d="M83.2,52.3H63V19.9h5.5v27.7h14.6V52.3z"/>
		</g>
		<g>
			<path class="st0" d="M85.9,20.8c0-2,1.7-3.7,3.7-3.7c2.1,0,3.8,1.7,3.8,3.7c0,2.1-1.7,3.8-3.8,3.8C87.6,24.6,85.9,22.9,85.9,20.8
				z M87,47.2V27.4h5.4V46c0,1.3,0.2,2.2,1.1,2.2c0.3,0,0.6-0.2,0.7-0.3l0.4,0.1l0.8,3.7l-0.2,0.3c-0.7,0.5-1.7,0.8-3.1,0.8
				C88.8,52.9,87,50.6,87,47.2z"/>
		</g>
		<g>
			<path class="st0" d="M107.2,27v0.4h7.4v4.2h-7.4v22.9c0,3.4-1.8,5.7-5.2,5.7c-1.4,0-2.4-0.3-3.1-0.8l-0.2-0.3l0.8-3.7l0.3-0.1
				c0.2,0.2,0.4,0.3,0.8,0.3c0.9,0,1.1-0.8,1.1-2.1V31.6h-4.2v-4.2h4.2V27c0-6.6,4.7-9.3,9.3-9.3c1.7,0,3.6,0.3,4.9,1.1l0.2,0.4
				l-1.4,3.4l-0.3,0.2c-0.9-0.6-1.9-0.8-2.9-0.8C109.2,22.1,107.2,23.5,107.2,27z"/>
		</g>
		<g>
			<path class="st0" d="M121.4,41.3c0.4,4.8,4.3,7.3,8.5,7.3c2.9,0,6.1-1.1,8-3.3h0.3l2.8,2.5v0.4c-2.6,3.3-7.3,4.7-11.3,4.7
				c-7.2,0-13.8-4.6-13.8-13c0-7.6,5.3-13.2,13.1-13.2c7.7,0,12.9,5.5,12.9,12.7c0,0.7,0,1.3-0.1,1.8H121.4z M121.4,37.8h15.1
				c-0.5-4.4-3.4-6.8-7.4-6.8C125,31,121.9,33.5,121.4,37.8z"/>
		</g>
		<g>
			<path class="st0" d="M173.2,39.9c0,7.3-5.1,13.1-12.7,13.1c-3.6,0-6.6-1.4-8.7-3.6v3h-4.9V24.9c0-1.3-0.2-2.2-1.1-2.2
				c-0.4,0-0.6,0.1-0.8,0.3l-0.3-0.1l-0.8-3.7l0.2-0.3c0.7-0.5,1.7-0.8,3.1-0.8c3.4,0,5.2,2,5.2,5.4v6.5c2.1-1.9,4.9-3.1,8.2-3.1
				C168.1,26.8,173.2,32.6,173.2,39.9z M167.6,39.9c0-4.6-3-8.3-7.8-8.3c-4.4,0-7.9,2.9-7.9,8.3c0,5.4,3.5,8.3,7.9,8.3
				C164.5,48.2,167.6,44.5,167.6,39.9z"/>
		</g>
		<g>
			<path class="st0" d="M194.6,28l-1.4,4l-0.3,0.1c-0.9-0.5-1.8-0.7-2.9-0.7c-3.2,0-5.4,2.5-5.4,6.6v14.3h-5.4V33.7
				c0-1.3-0.2-2.2-1.1-2.2c-0.3,0-0.6,0.1-0.8,0.3l-0.3-0.1L176,28l0.2-0.3c0.7-0.5,1.7-0.8,3.1-0.8c2.1,0,3.7,1.1,4.3,3.2
				c1.6-2,4-3.2,6.8-3.2c1.4,0,2.7,0.3,3.9,0.8L194.6,28z"/>
		</g>
		<g>
			<path class="st0" d="M200.5,41.3c0.4,4.8,4.3,7.3,8.5,7.3c2.9,0,6.1-1.1,8-3.3h0.3l2.8,2.5v0.4c-2.6,3.3-7.3,4.7-11.3,4.7
				c-7.2,0-13.8-4.6-13.8-13c0-7.6,5.3-13.2,13.1-13.2c7.7,0,12.9,5.5,12.9,12.7c0,0.7,0,1.3-0.1,1.8H200.5z M200.5,37.8h15.1
				c-0.5-4.4-3.4-6.8-7.4-6.8C204.1,31,201,33.5,200.5,37.8z"/>
		</g>
		<g>
			<path class="st0" d="M253.6,51.7l-0.2,0.3c-0.7,0.4-1.7,0.8-3,0.8c-2.4,0-4.1-1.3-4.6-3.6c-2.2,2.2-5.2,3.6-8.9,3.6
				c-7.3,0-12.5-5.8-12.5-13.1c0-7.3,5.2-13.1,12.5-13.1c3.6,0,6.6,1.4,8.8,3.6v-3h4.8V46c0,1.4,0.3,2.2,1.1,2.2
				c0.4,0,0.7-0.2,0.8-0.3l0.3,0.1L253.6,51.7z M245.6,39.9c0-5.4-3.5-8.3-7.8-8.3c-4.8,0-7.9,3.7-7.9,8.3c0,4.6,3.1,8.3,7.8,8.3
				C242.1,48.2,245.6,45.2,245.6,39.9z"/>
		</g>
		<g>
			<path class="st0" d="M281.8,51.8l-0.2,0.4c-0.6,0.4-1.6,0.7-2.8,0.7c-2.4,0-4.3-1.2-5.8-3l-7-8.5l-2.4,2.6v8.3h-5.4V24.9
				c0-1.3-0.2-2.2-1.1-2.2c-0.3,0-0.6,0.1-0.8,0.3l-0.3-0.1l-0.8-3.7l0.2-0.3c0.7-0.5,1.7-0.8,3.1-0.8c3.4,0,5.2,2,5.2,5.4v15.3
				l10.3-11.4h5.8l0.1,0.3L270,38.4l7.2,8.4c0.8,0.9,1.4,1.4,2.3,1.4c0.4,0,0.8-0.2,1.1-0.3L281,48L281.8,51.8z"/>
		</g>
	</g>
	<g>
		<path class="st0" d="M232.1,64c0,1.9-1.3,3.3-3.2,3.3c-0.9,0-1.7-0.4-2.2-0.9v0.8h-1.2v-7c0-0.3-0.1-0.6-0.3-0.6
			c-0.1,0-0.2,0-0.2,0.1l-0.1,0l-0.2-0.9l0.1-0.1c0.2-0.1,0.4-0.2,0.8-0.2c0.9,0,1.3,0.5,1.3,1.4v1.7c0.5-0.5,1.2-0.8,2.1-0.8
			C230.8,60.7,232.1,62.2,232.1,64z M230.7,64c0-1.2-0.8-2.1-2-2.1c-1.1,0-2,0.7-2,2.1s0.9,2.1,2,2.1
			C229.9,66.1,230.7,65.2,230.7,64z"/>
		<path class="st0" d="M239.7,60.9v5.2c0,2-1.5,3-3.2,3c-1.2,0-2.2-0.5-2.8-1.3v-0.1l0.6-0.8h0.1c0.4,0.6,1.2,1.1,2.1,1.1
			c1,0,1.9-0.6,1.9-1.8v-0.3c-0.5,0.5-1.1,0.7-1.9,0.7c-1.4,0-2.5-0.8-2.5-2.5v-1.7c0-0.3-0.1-0.6-0.3-0.6c-0.1,0-0.2,0-0.2,0.1
			l-0.1,0l-0.2-0.9l0.1-0.1c0.2-0.1,0.4-0.2,0.8-0.2c0.9,0,1.3,0.5,1.3,1.4v2c0,0.9,0.6,1.4,1.4,1.4c0.9,0,1.6-0.6,1.6-1.6v-3H239.7
			z"/>
		<path class="st0" d="M246.4,57.4c0.6,0,1.2,0.5,1.2,1.2s-0.5,1.2-1.2,1.2c-0.6,0-1.2-0.5-1.2-1.2S245.8,57.4,246.4,57.4z
			 M245.4,61.4c0-0.6,0.4-1,1-1s1,0.5,1,1v4.9c0,0.6-0.4,1-1,1s-1-0.5-1-1V61.4z"/>
		<path class="st0" d="M248.8,61.4c0-0.6,0.4-1,1-1c0.5,0,0.9,0.3,1,0.6c0.3-0.5,1-0.8,1.7-0.8c0.6,0,1.4,0.2,1.8,0.8
			c0.5-0.4,1.1-0.8,1.9-0.8c1.4,0,2.5,0.7,2.5,2.3v3.7c0,0.6-0.4,1-1,1c-0.6,0-1-0.5-1-1v-3.1c0-0.6-0.3-1.2-1-1.2
			c-0.6,0-1,0.6-1,1.2v3.1c0,0.6-0.4,1-1,1c-0.6,0-1-0.5-1-1v-3.1c0-0.6-0.3-1.2-1-1.2c-0.6,0-1,0.6-1,1.2v3.1c0,0.6-0.4,1-1,1
			s-1-0.5-1-1V61.4z"/>
		<path class="st0" d="M266.3,64.8c0,1.8-1.4,2.6-3.1,2.6c-1.7,0-3.1-0.8-3.1-2.6v-3.4c0-0.6,0.4-1,1-1c0.6,0,1,0.5,1,1v3.1
			c0,0.7,0.6,1.1,1.1,1.1c0.5,0,1.1-0.3,1.1-1.1v-3.1c0-0.6,0.4-1,1-1c0.6,0,1,0.5,1,1V64.8z"/>
		<path class="st0" d="M267.7,58.5c0-0.6,0.4-1,1-1c0.6,0,1,0.5,1,1v4.2l1.6-1.6c0.3-0.3,0.6-0.7,1.1-0.7c0.6,0,1,0.4,1,0.9
			c0,0.4-0.2,0.6-0.7,1l-1.1,1.1l1.7,2.1c0.2,0.3,0.5,0.6,0.5,0.9c0,0.4-0.3,0.9-1,0.9c-0.5,0-0.7-0.1-1.1-0.7l-2-2.6h0v2.2
			c0,0.6-0.4,1-1,1c-0.6,0-1-0.5-1-1V58.5z"/>
		<path class="st0" d="M281,63.8c0,2-1.3,3.6-3.3,3.6c-2,0-3.3-1.6-3.3-3.6c0-2,1.3-3.6,3.3-3.6C279.6,60.2,281,61.8,281,63.8z
			 M276.3,63.8c0,0.9,0.5,1.7,1.4,1.7c0.9,0,1.4-0.8,1.4-1.7c0-0.9-0.5-1.7-1.4-1.7C276.7,62.1,276.3,62.9,276.3,63.8z"/>
	</g>
</g>
</svg>
